<svg width="441" height="198" viewBox="0 0 441 198" fill="none" xmlns="http://www.w3.org/2000/svg">
<g filter="url(#filter0_d_24_4)">
<path fill-rule="evenodd" clip-rule="evenodd" d="M8 170.157C8 174.489 11.5114 178 15.8428 178L411 178C416.523 178 421 173.523 421 168V18C421 12.4772 416.523 8 411 8L15.8428 8C11.5114 8 8 11.5114 8 15.8428C8 18.585 9.44849 21.1056 11.7166 22.6469C34.2187 37.9386 49 63.7431 49 93C49 122.257 34.2187 148.061 11.7166 163.353C9.44849 164.894 8 167.415 8 170.157Z" fill="white"/>
</g>
<defs>
<filter id="filter0_d_24_4" x="0" y="0" width="441" height="198" filterUnits="userSpaceOnUse" color-interpolation-filters="sRGB">
<feFlood flood-opacity="0" result="BackgroundImageFix"/>
<feColorMatrix in="SourceAlpha" type="matrix" values="0 0 0 0 0 0 0 0 0 0 0 0 0 0 0 0 0 0 127 0" result="hardAlpha"/>
<feOffset dx="6" dy="6"/>
<feGaussianBlur stdDeviation="7"/>
<feColorMatrix type="matrix" values="0 0 0 0 0 0 0 0 0 0 0 0 0 0 0 0 0 0 0.25 0"/>
<feBlend mode="normal" in2="BackgroundImageFix" result="effect1_dropShadow_24_4"/>
<feBlend mode="normal" in="SourceGraphic" in2="effect1_dropShadow_24_4" result="shape"/>
</filter>
</defs>
</svg>
